<svg width="24" height="24" viewBox="0 0 24 24" fill="none" xmlns="http://www.w3.org/2000/svg">
<path d="M16.4998 20.7497V21.2497H7.49976V20.7497H16.4998ZM5.32397 19.4997C5.49203 20.0637 5.93574 20.5083 6.49976 20.6765V21.1911C6.09012 21.0976 5.71079 20.8924 5.40894 20.5905C5.10708 20.2886 4.90178 19.9094 4.80835 19.4997H5.32397ZM19.1912 19.4997C19.0977 19.9095 18.8925 20.2886 18.5906 20.5905C18.2887 20.8924 17.9095 21.0976 17.4998 21.1911V20.6765C18.064 20.5084 18.5085 20.0639 18.6765 19.4997H19.1912ZM19.2498 12.0173V18.4997H18.7498V11.5173L19.2498 12.0173ZM5.24976 18.4997H4.74976V12.0173L5.24976 11.5173V18.4997ZM3.74976 11.6032L3.52905 11.8229L3.17651 11.4694L3.74976 10.8972V11.6032ZM20.822 11.4694L20.4695 11.8229L20.2498 11.6032V10.8972L20.822 11.4694ZM4.85327 10.4997L4.74976 10.6032V10.4997H4.85327ZM19.2498 10.4997V10.6032L19.1462 10.4997H19.2498ZM11.2927 4.06024L6.04175 9.31024C5.99591 9.241 5.94314 9.1755 5.88354 9.11591C5.82373 9.05612 5.75873 9.00266 5.68921 8.95673L10.9392 3.70673L11.2927 4.06024ZM18.3093 8.95673C18.2401 9.00256 18.1756 9.05632 18.116 9.11591C18.0562 9.17567 18.0027 9.24078 17.9568 9.31024L12.7068 4.06024L12.8835 3.88348L13.0593 3.70673L18.3093 8.95673Z" fill="black" stroke="white"/>
</svg>
