<svg width="24" height="24" viewBox="0 0 24 24" fill="none" xmlns="http://www.w3.org/2000/svg">
<path d="M16.5 3.5C19.3045 3.5 21.5 5.68674 21.5 8.5C21.5 10.2206 20.7289 11.8259 19.2695 13.6113C17.8047 15.4035 15.699 17.3154 13.1143 19.6592L13.1133 19.6602L12 20.6729L10.8867 19.6602L10.8857 19.6592C8.30104 17.3154 6.19531 15.4035 4.73047 13.6113C3.27109 11.8259 2.5 10.2206 2.5 8.5C2.5 5.68674 4.69555 3.5 7.5 3.5C9.08865 3.5 10.6216 4.24211 11.6201 5.40527L12 5.84766L12.3799 5.40527C13.3784 4.24211 14.9114 3.5 16.5 3.5ZM16.5 4.5C14.886 4.5 13.3094 5.46686 12.6074 6.86035H11.3926C10.6906 5.46686 9.11401 4.5 7.5 4.5C5.22386 4.5 3.5 6.22386 3.5 8.5C3.5 10.1295 4.38502 11.681 5.78418 13.3174C6.83717 14.5489 8.22508 15.8773 9.85156 17.3701L11.5537 18.9199L11.6641 19.0195L12.0166 19.3408L12.3535 19.0039L12.4355 18.9209C14.8068 16.7738 16.8095 14.9595 18.2148 13.3174C19.6153 11.681 20.5 10.1295 20.5 8.5C20.5 6.22386 18.7761 4.5 16.5 4.5Z" fill="black" stroke="white"/>
</svg>
