<svg width="99" height="29" viewBox="0 0 99 29" fill="none" xmlns="http://www.w3.org/2000/svg">
<path d="M1.107 25V6.613H7.83C9.828 6.613 11.511 6.982 12.879 7.72C14.265 8.44 15.318 9.484 16.038 10.852C16.758 12.22 17.118 13.867 17.118 15.793C17.118 17.719 16.758 19.375 16.038 20.761C15.318 22.129 14.265 23.182 12.879 23.92C11.493 24.64 9.801 25 7.803 25H1.107ZM5.994 22.408L3.861 20.248H7.425C8.433 20.248 9.279 20.104 9.963 19.816C10.665 19.51 11.196 19.033 11.556 18.385C11.934 17.719 12.123 16.855 12.123 15.793C12.123 14.731 11.943 13.876 11.583 13.228C11.223 12.58 10.692 12.112 9.99 11.824C9.306 11.518 8.46 11.365 7.452 11.365H3.672L5.994 10.096V22.408ZM24.8731 25.243C23.5231 25.243 22.3441 24.964 21.3361 24.406C20.3281 23.848 19.5451 23.056 18.9871 22.03C18.4291 21.004 18.1501 19.789 18.1501 18.385C18.1501 17.035 18.4291 15.838 18.9871 14.794C19.5451 13.732 20.3281 12.904 21.3361 12.31C22.3441 11.698 23.5231 11.392 24.8731 11.392C26.2771 11.392 27.4741 11.716 28.4641 12.364C29.4721 12.994 30.2461 13.831 30.7861 14.875C31.3261 15.919 31.5961 17.062 31.5961 18.304C31.5961 18.628 31.5871 18.925 31.5691 19.195C31.5511 19.465 31.5241 19.672 31.4881 19.816H21.6061V16.657H27.6541L27.4111 17.467C27.4111 16.765 27.2041 16.198 26.7901 15.766C26.3941 15.334 25.7731 15.118 24.9271 15.118C24.1531 15.118 23.5321 15.343 23.0641 15.793C22.6141 16.225 22.3891 16.819 22.3891 17.575V19.087C22.3891 19.915 22.6411 20.545 23.1451 20.977C23.6671 21.409 24.3781 21.625 25.2781 21.625C25.9621 21.625 26.5111 21.499 26.9251 21.247C27.3571 20.977 27.7171 20.644 28.0051 20.248L31.1641 21.895C30.6241 22.903 29.7961 23.713 28.6801 24.325C27.5821 24.937 26.3131 25.243 24.8731 25.243ZM46.0021 11.77L41.4391 25H36.6871L31.8541 11.77H36.7411L39.8731 21.652H38.2531L41.2501 11.77H46.0021ZM55.6265 25.378C53.6825 25.378 52.0085 24.973 50.6045 24.163C49.2005 23.353 48.1205 22.237 47.3645 20.815C46.6085 19.375 46.2305 17.71 46.2305 15.82C46.2305 14.416 46.4555 13.129 46.9055 11.959C47.3555 10.789 47.9945 9.781 48.8225 8.935C49.6505 8.071 50.6405 7.414 51.7925 6.964C52.9445 6.496 54.2225 6.262 55.6265 6.262C57.8225 6.262 59.6405 6.766 61.0805 7.774C62.5205 8.764 63.5645 10.24 64.2125 12.202L59.8925 14.038C59.4785 13.066 58.9295 12.319 58.2455 11.797C57.5615 11.275 56.6885 11.014 55.6265 11.014C54.7625 11.014 53.9975 11.203 53.3315 11.581C52.6655 11.959 52.1435 12.508 51.7655 13.228C51.4055 13.948 51.2255 14.812 51.2255 15.82C51.2255 16.828 51.4055 17.692 51.7655 18.412C52.1435 19.132 52.6655 19.681 53.3315 20.059C53.9975 20.419 54.7625 20.599 55.6265 20.599C56.6885 20.599 57.5615 20.347 58.2455 19.843C58.9295 19.321 59.4785 18.574 59.8925 17.602L64.2125 19.438C63.5645 21.4 62.5205 22.885 61.0805 23.893C59.6405 24.883 57.8225 25.378 55.6265 25.378ZM71.8419 25.378C70.4379 25.378 69.2049 25.081 68.1429 24.487C67.0809 23.875 66.2439 23.047 65.6319 22.003C65.0379 20.941 64.7409 19.735 64.7409 18.385C64.7409 17.035 65.0379 15.838 65.6319 14.794C66.2439 13.732 67.0809 12.904 68.1429 12.31C69.2049 11.698 70.4379 11.392 71.8419 11.392C73.2459 11.392 74.4789 11.698 75.5409 12.31C76.6209 12.904 77.4579 13.732 78.0519 14.794C78.6459 15.838 78.9429 17.035 78.9429 18.385C78.9429 19.735 78.6459 20.941 78.0519 22.003C77.4579 23.047 76.6209 23.875 75.5409 24.487C74.4789 25.081 73.2459 25.378 71.8419 25.378ZM71.8419 20.599C72.4539 20.599 72.9669 20.392 73.3809 19.978C73.7949 19.564 74.0019 19.024 74.0019 18.358C74.0019 17.692 73.7949 17.161 73.3809 16.765C72.9669 16.351 72.4539 16.144 71.8419 16.144C71.2299 16.144 70.7169 16.351 70.3029 16.765C69.9069 17.161 69.7089 17.692 69.7089 18.358C69.7089 19.024 69.9069 19.564 70.3029 19.978C70.7169 20.392 71.2299 20.599 71.8419 20.599ZM88.9534 11.392C89.8174 11.392 90.5284 11.545 91.0864 11.851C91.6624 12.139 92.1124 12.535 92.4364 13.039C92.7604 13.543 92.9854 14.119 93.1114 14.767C93.2374 15.415 93.3004 16.09 93.3004 16.792V25H88.4134V17.629C88.4134 17.017 88.3324 16.621 88.1704 16.441C88.0264 16.261 87.7744 16.171 87.4144 16.171C87.1804 16.171 86.9284 16.216 86.6584 16.306C86.4064 16.378 86.1274 16.504 85.8214 16.684C85.5334 16.846 85.2184 17.053 84.8764 17.305L83.6614 14.929H85.2814V25H80.3944V11.77H83.9854L84.9574 14.605L83.0944 14.362C83.5264 13.876 84.0394 13.408 84.6334 12.958C85.2454 12.508 85.9114 12.139 86.6314 11.851C87.3694 11.545 88.1434 11.392 88.9534 11.392Z" fill="white"/>
</svg>
