<svg width="351" height="73" viewBox="0 0 351 73" fill="none" xmlns="http://www.w3.org/2000/svg">
<path d="M2.501 57V15.459H17.69C22.204 15.459 26.0063 16.2927 29.097 17.96C32.2283 19.5867 34.6073 21.9453 36.234 25.036C37.8607 28.1267 38.674 31.8477 38.674 36.199C38.674 40.5503 37.8607 44.2917 36.234 47.423C34.6073 50.5137 32.2283 52.8927 29.097 54.56C25.9657 56.1867 22.143 57 17.629 57H2.501ZM13.542 51.144L8.723 46.264H16.775C19.0523 46.264 20.9637 45.9387 22.509 45.288C24.095 44.5967 25.2947 43.519 26.108 42.055C26.962 40.5503 27.389 38.5983 27.389 36.199C27.389 33.7997 26.9823 31.868 26.169 30.404C25.3557 28.94 24.156 27.8827 22.57 27.232C21.0247 26.5407 19.1133 26.195 16.836 26.195H8.296L13.542 23.328V51.144ZM56.1948 57.549C53.1448 57.549 50.4812 56.9187 48.2038 55.658C45.9265 54.3973 44.1575 52.608 42.8968 50.29C41.6362 47.972 41.0058 45.227 41.0058 42.055C41.0058 39.005 41.6362 36.3007 42.8968 33.942C44.1575 31.5427 45.9265 29.672 48.2038 28.33C50.4812 26.9473 53.1448 26.256 56.1948 26.256C59.3668 26.256 62.0712 26.988 64.3078 28.452C66.5852 29.8753 68.3338 31.7663 69.5538 34.125C70.7738 36.4837 71.3838 39.066 71.3838 41.872C71.3838 42.604 71.3635 43.275 71.3228 43.885C71.2822 44.495 71.2212 44.9627 71.1398 45.288H48.8138V38.151H62.4778L61.9288 39.981C61.9288 38.395 61.4612 37.114 60.5258 36.138C59.6312 35.162 58.2282 34.674 56.3168 34.674C54.5682 34.674 53.1652 35.1823 52.1078 36.199C51.0912 37.175 50.5828 38.517 50.5828 40.225V43.641C50.5828 45.5117 51.1522 46.935 52.2908 47.911C53.4702 48.887 55.0765 49.375 57.1098 49.375C58.6552 49.375 59.8955 49.0903 60.8308 48.521C61.8068 47.911 62.6202 47.1587 63.2708 46.264L70.4078 49.985C69.1878 52.2623 67.3172 54.0923 64.7958 55.475C62.3152 56.8577 59.4482 57.549 56.1948 57.549ZM103.931 27.11L93.6217 57H82.8857L71.9667 27.11H83.0077L90.0837 49.436H86.4237L93.1947 27.11H103.931ZM125.675 57.854C121.283 57.854 117.501 56.939 114.329 55.109C111.157 53.279 108.717 50.7577 107.009 47.545C105.301 44.2917 104.447 40.53 104.447 36.26C104.447 33.088 104.955 30.1803 105.972 27.537C106.988 24.8937 108.432 22.6163 110.303 20.705C112.173 18.753 114.41 17.2687 117.013 16.252C119.615 15.1947 122.503 14.666 125.675 14.666C130.636 14.666 134.743 15.8047 137.997 18.082C141.25 20.3187 143.609 23.6533 145.073 28.086L135.313 32.234C134.377 30.038 133.137 28.3503 131.592 27.171C130.046 25.9917 128.074 25.402 125.675 25.402C123.723 25.402 121.994 25.829 120.49 26.683C118.985 27.537 117.806 28.7773 116.952 30.404C116.138 32.0307 115.732 33.9827 115.732 36.26C115.732 38.5373 116.138 40.4893 116.952 42.116C117.806 43.7427 118.985 44.983 120.49 45.837C121.994 46.6503 123.723 47.057 125.675 47.057C128.074 47.057 130.046 46.4877 131.592 45.349C133.137 44.1697 134.377 42.482 135.313 40.286L145.073 44.434C143.609 48.8667 141.25 52.2217 137.997 54.499C134.743 56.7357 130.636 57.854 125.675 57.854ZM162.31 57.854C159.138 57.854 156.352 57.183 153.953 55.841C151.553 54.4583 149.662 52.5877 148.28 50.229C146.938 47.8297 146.267 45.105 146.267 42.055C146.267 39.005 146.938 36.3007 148.28 33.942C149.662 31.5427 151.553 29.672 153.953 28.33C156.352 26.9473 159.138 26.256 162.31 26.256C165.482 26.256 168.267 26.9473 170.667 28.33C173.107 29.672 174.998 31.5427 176.34 33.942C177.682 36.3007 178.353 39.005 178.353 42.055C178.353 45.105 177.682 47.8297 176.34 50.229C174.998 52.5877 173.107 54.4583 170.667 55.841C168.267 57.183 165.482 57.854 162.31 57.854ZM162.31 47.057C163.692 47.057 164.851 46.5893 165.787 45.654C166.722 44.7187 167.19 43.4987 167.19 41.994C167.19 40.4893 166.722 39.2897 165.787 38.395C164.851 37.4597 163.692 36.992 162.31 36.992C160.927 36.992 159.768 37.4597 158.833 38.395C157.938 39.2897 157.491 40.4893 157.491 41.994C157.491 43.4987 157.938 44.7187 158.833 45.654C159.768 46.5893 160.927 47.057 162.31 47.057ZM200.969 26.256C202.921 26.256 204.527 26.6017 205.788 27.293C207.089 27.9437 208.106 28.8383 208.838 29.977C209.57 31.1157 210.078 32.417 210.363 33.881C210.647 35.345 210.79 36.87 210.79 38.456V57H199.749V40.347C199.749 38.9643 199.566 38.0697 199.2 37.663C198.874 37.2563 198.305 37.053 197.492 37.053C196.963 37.053 196.394 37.1547 195.784 37.358C195.214 37.5207 194.584 37.8053 193.893 38.212C193.242 38.578 192.53 39.0457 191.758 39.615L189.013 34.247H192.673V57H181.632V27.11H189.745L191.941 33.515L187.732 32.966C188.708 31.868 189.867 30.8107 191.209 29.794C192.591 28.7773 194.096 27.9437 195.723 27.293C197.39 26.6017 199.139 26.256 200.969 26.256ZM234.805 26.256C236.757 26.256 238.363 26.6017 239.624 27.293C240.925 27.9437 241.942 28.8383 242.674 29.977C243.406 31.1157 243.914 32.417 244.199 33.881C244.483 35.345 244.626 36.87 244.626 38.456V57H233.585V40.347C233.585 38.9643 233.402 38.0697 233.036 37.663C232.71 37.2563 232.141 37.053 231.328 37.053C230.799 37.053 230.23 37.1547 229.62 37.358C229.05 37.5207 228.42 37.8053 227.729 38.212C227.078 38.578 226.366 39.0457 225.594 39.615L222.849 34.247H226.509V57H215.468V27.11H223.581L225.777 33.515L221.568 32.966C222.544 31.868 223.703 30.8107 225.045 29.794C226.427 28.7773 227.932 27.9437 229.559 27.293C231.226 26.6017 232.975 26.256 234.805 26.256ZM262.487 57.549C259.437 57.549 256.773 56.9187 254.496 55.658C252.218 54.3973 250.449 52.608 249.189 50.29C247.928 47.972 247.298 45.227 247.298 42.055C247.298 39.005 247.928 36.3007 249.189 33.942C250.449 31.5427 252.218 29.672 254.496 28.33C256.773 26.9473 259.437 26.256 262.487 26.256C265.659 26.256 268.363 26.988 270.6 28.452C272.877 29.8753 274.626 31.7663 275.846 34.125C277.066 36.4837 277.676 39.066 277.676 41.872C277.676 42.604 277.655 43.275 277.615 43.885C277.574 44.495 277.513 44.9627 277.432 45.288H255.106V38.151H268.77L268.221 39.981C268.221 38.395 267.753 37.114 266.818 36.138C265.923 35.162 264.52 34.674 262.609 34.674C260.86 34.674 259.457 35.1823 258.4 36.199C257.383 37.175 256.875 38.517 256.875 40.225V43.641C256.875 45.5117 257.444 46.935 258.583 47.911C259.762 48.887 261.368 49.375 263.402 49.375C264.947 49.375 266.187 49.0903 267.123 48.521C268.099 47.911 268.912 47.1587 269.563 46.264L276.7 49.985C275.48 52.2623 273.609 54.0923 271.088 55.475C268.607 56.8577 265.74 57.549 262.487 57.549ZM295.019 57.854C291.969 57.854 289.265 57.183 286.906 55.841C284.588 54.4583 282.779 52.5673 281.477 50.168C280.176 47.7687 279.525 45.044 279.525 41.994C279.525 38.9847 280.176 36.3007 281.477 33.942C282.779 31.5427 284.588 29.672 286.906 28.33C289.265 26.9473 291.969 26.256 295.019 26.256C298.639 26.256 301.709 27.11 304.23 28.818C306.752 30.4853 308.541 32.7627 309.598 35.65L299.777 40.103C299.289 39.1677 298.72 38.4153 298.069 37.846C297.419 37.2767 296.463 36.992 295.202 36.992C293.901 36.992 292.783 37.4597 291.847 38.395C290.953 39.2897 290.505 40.4893 290.505 41.994C290.505 43.5393 290.953 44.7593 291.847 45.654C292.783 46.5487 293.901 46.996 295.202 46.996C296.463 46.996 297.419 46.7317 298.069 46.203C298.72 45.6337 299.289 44.9017 299.777 44.007L309.598 48.399C308.541 51.2457 306.731 53.5433 304.169 55.292C301.607 57 298.557 57.854 295.019 57.854ZM327.576 57.488C323.754 57.488 320.765 56.634 318.609 54.926C316.454 53.1773 315.376 50.2697 315.376 46.203V27.476L315.193 27.11L317.511 19.607H326.417V42.665C326.417 44.251 326.763 45.349 327.454 45.959C328.146 46.569 329.081 46.874 330.26 46.874C330.83 46.874 331.379 46.813 331.907 46.691C332.477 46.569 332.944 46.447 333.31 46.325V56.695C332.456 56.9797 331.562 57.183 330.626 57.305C329.732 57.427 328.715 57.488 327.576 57.488ZM310.679 37.297V27.11H333.31V37.297H310.679Z" fill="black"/>
</svg>
