<svg width="181" height="37" viewBox="0 0 181 37" fill="none" xmlns="http://www.w3.org/2000/svg">
<path d="M1.271 29V7.889H8.99C11.284 7.889 13.2163 8.31267 14.787 9.16C16.3783 9.98667 17.5873 11.1853 18.414 12.756C19.2407 14.3267 19.654 16.2177 19.654 18.429C19.654 20.6403 19.2407 22.5417 18.414 24.133C17.5873 25.7037 16.3783 26.9127 14.787 27.76C13.1957 28.5867 11.253 29 8.959 29H1.271ZM6.882 26.024L4.433 23.544H8.525C9.68233 23.544 10.6537 23.3787 11.439 23.048C12.245 22.6967 12.8547 22.149 13.268 21.405C13.702 20.6403 13.919 19.6483 13.919 18.429C13.919 17.2097 13.7123 16.228 13.299 15.484C12.8857 14.74 12.276 14.2027 11.47 13.872C10.6847 13.5207 9.71333 13.345 8.556 13.345H4.216L6.882 11.888V26.024ZM28.558 29.279C27.008 29.279 25.6544 28.9587 24.497 28.318C23.3397 27.6773 22.4407 26.768 21.8 25.59C21.1594 24.412 20.839 23.017 20.839 21.405C20.839 19.855 21.1594 18.4807 21.8 17.282C22.4407 16.0627 23.3397 15.112 24.497 14.43C25.6544 13.7273 27.008 13.376 28.558 13.376C30.17 13.376 31.5444 13.748 32.681 14.492C33.8384 15.2153 34.727 16.1763 35.347 17.375C35.967 18.5737 36.277 19.886 36.277 21.312C36.277 21.684 36.2667 22.025 36.246 22.335C36.2254 22.645 36.1944 22.8827 36.153 23.048H24.807V19.421H31.751L31.472 20.351C31.472 19.545 31.2344 18.894 30.759 18.398C30.3044 17.902 29.5914 17.654 28.62 17.654C27.7314 17.654 27.0184 17.9123 26.481 18.429C25.9644 18.925 25.706 19.607 25.706 20.475V22.211C25.706 23.1617 25.9954 23.885 26.574 24.381C27.1734 24.877 27.9897 25.125 29.023 25.125C29.8084 25.125 30.4387 24.9803 30.914 24.691C31.41 24.381 31.8234 23.9987 32.154 23.544L35.781 25.435C35.161 26.5923 34.2104 27.5223 32.929 28.225C31.6684 28.9277 30.2114 29.279 28.558 29.279ZM52.8172 13.81L47.5782 29H42.1222L36.5732 13.81H42.1842L45.7802 25.156H43.9202L47.3612 13.81H52.8172ZM63.8675 29.434C61.6355 29.434 59.7135 28.969 58.1015 28.039C56.4895 27.109 55.2495 25.8277 54.3815 24.195C53.5135 22.5417 53.0795 20.63 53.0795 18.46C53.0795 16.848 53.3378 15.3703 53.8545 14.027C54.3712 12.6837 55.1048 11.5263 56.0555 10.555C57.0062 9.563 58.1428 8.80867 59.4655 8.292C60.7882 7.75467 62.2555 7.486 63.8675 7.486C66.3888 7.486 68.4762 8.06467 70.1295 9.222C71.7828 10.3587 72.9815 12.0533 73.7255 14.306L68.7655 16.414C68.2902 15.298 67.6598 14.4403 66.8745 13.841C66.0892 13.2417 65.0868 12.942 63.8675 12.942C62.8755 12.942 61.9972 13.159 61.2325 13.593C60.4678 14.027 59.8685 14.6573 59.4345 15.484C59.0212 16.3107 58.8145 17.3027 58.8145 18.46C58.8145 19.6173 59.0212 20.6093 59.4345 21.436C59.8685 22.2627 60.4678 22.893 61.2325 23.327C61.9972 23.7403 62.8755 23.947 63.8675 23.947C65.0868 23.947 66.0892 23.6577 66.8745 23.079C67.6598 22.4797 68.2902 21.622 68.7655 20.506L73.7255 22.614C72.9815 24.8667 71.7828 26.5717 70.1295 27.729C68.4762 28.8657 66.3888 29.434 63.8675 29.434ZM82.4852 29.434C80.8732 29.434 79.4575 29.093 78.2382 28.411C77.0189 27.7083 76.0579 26.7577 75.3552 25.559C74.6732 24.3397 74.3322 22.955 74.3322 21.405C74.3322 19.855 74.6732 18.4807 75.3552 17.282C76.0579 16.0627 77.0189 15.112 78.2382 14.43C79.4575 13.7273 80.8732 13.376 82.4852 13.376C84.0972 13.376 85.5129 13.7273 86.7322 14.43C87.9722 15.112 88.9332 16.0627 89.6152 17.282C90.2972 18.4807 90.6382 19.855 90.6382 21.405C90.6382 22.955 90.2972 24.3397 89.6152 25.559C88.9332 26.7577 87.9722 27.7083 86.7322 28.411C85.5129 29.093 84.0972 29.434 82.4852 29.434ZM82.4852 23.947C83.1879 23.947 83.7769 23.7093 84.2522 23.234C84.7275 22.7587 84.9652 22.1387 84.9652 21.374C84.9652 20.6093 84.7275 19.9997 84.2522 19.545C83.7769 19.0697 83.1879 18.832 82.4852 18.832C81.7825 18.832 81.1935 19.0697 80.7182 19.545C80.2635 19.9997 80.0362 20.6093 80.0362 21.374C80.0362 22.1387 80.2635 22.7587 80.7182 23.234C81.1935 23.7093 81.7825 23.947 82.4852 23.947ZM102.132 13.376C103.124 13.376 103.94 13.5517 104.581 13.903C105.242 14.2337 105.759 14.6883 106.131 15.267C106.503 15.8457 106.761 16.507 106.906 17.251C107.05 17.995 107.123 18.77 107.123 19.576V29H101.512V20.537C101.512 19.8343 101.419 19.3797 101.233 19.173C101.067 18.9663 100.778 18.863 100.365 18.863C100.096 18.863 99.8067 18.9147 99.4967 19.018C99.2073 19.1007 98.887 19.2453 98.5357 19.452C98.205 19.638 97.8433 19.8757 97.4507 20.165L96.0557 17.437H97.9157V29H92.3047V13.81H96.4277L97.5437 17.065L95.4047 16.786C95.9007 16.228 96.4897 15.6907 97.1717 15.174C97.8743 14.6573 98.639 14.2337 99.4657 13.903C100.313 13.5517 101.202 13.376 102.132 13.376ZM119.327 13.376C120.319 13.376 121.135 13.5517 121.776 13.903C122.437 14.2337 122.954 14.6883 123.326 15.267C123.698 15.8457 123.956 16.507 124.101 17.251C124.246 17.995 124.318 18.77 124.318 19.576V29H118.707V20.537C118.707 19.8343 118.614 19.3797 118.428 19.173C118.263 18.9663 117.973 18.863 117.56 18.863C117.291 18.863 117.002 18.9147 116.692 19.018C116.403 19.1007 116.082 19.2453 115.731 19.452C115.4 19.638 115.039 19.8757 114.646 20.165L113.251 17.437H115.111V29H109.5V13.81H113.623L114.739 17.065L112.6 16.786C113.096 16.228 113.685 15.6907 114.367 15.174C115.07 14.6573 115.834 14.2337 116.661 13.903C117.508 13.5517 118.397 13.376 119.327 13.376ZM133.395 29.279C131.845 29.279 130.491 28.9587 129.334 28.318C128.177 27.6773 127.278 26.768 126.637 25.59C125.996 24.412 125.676 23.017 125.676 21.405C125.676 19.855 125.996 18.4807 126.637 17.282C127.278 16.0627 128.177 15.112 129.334 14.43C130.491 13.7273 131.845 13.376 133.395 13.376C135.007 13.376 136.381 13.748 137.518 14.492C138.675 15.2153 139.564 16.1763 140.184 17.375C140.804 18.5737 141.114 19.886 141.114 21.312C141.114 21.684 141.104 22.025 141.083 22.335C141.062 22.645 141.031 22.8827 140.99 23.048H129.644V19.421H136.588L136.309 20.351C136.309 19.545 136.071 18.894 135.596 18.398C135.141 17.902 134.428 17.654 133.457 17.654C132.568 17.654 131.855 17.9123 131.318 18.429C130.801 18.925 130.543 19.607 130.543 20.475V22.211C130.543 23.1617 130.832 23.885 131.411 24.381C132.01 24.877 132.827 25.125 133.86 25.125C134.645 25.125 135.276 24.9803 135.751 24.691C136.247 24.381 136.66 23.9987 136.991 23.544L140.618 25.435C139.998 26.5923 139.047 27.5223 137.766 28.225C136.505 28.9277 135.048 29.279 133.395 29.279ZM149.928 29.434C148.378 29.434 147.004 29.093 145.805 28.411C144.627 27.7083 143.707 26.7473 143.046 25.528C142.385 24.3087 142.054 22.924 142.054 21.374C142.054 19.8447 142.385 18.4807 143.046 17.282C143.707 16.0627 144.627 15.112 145.805 14.43C147.004 13.7273 148.378 13.376 149.928 13.376C151.767 13.376 153.328 13.81 154.609 14.678C155.89 15.5253 156.8 16.6827 157.337 18.15L152.346 20.413C152.098 19.9377 151.809 19.5553 151.478 19.266C151.147 18.9767 150.662 18.832 150.021 18.832C149.36 18.832 148.791 19.0697 148.316 19.545C147.861 19.9997 147.634 20.6093 147.634 21.374C147.634 22.1593 147.861 22.7793 148.316 23.234C148.791 23.6887 149.36 23.916 150.021 23.916C150.662 23.916 151.147 23.7817 151.478 23.513C151.809 23.2237 152.098 22.8517 152.346 22.397L157.337 24.629C156.8 26.0757 155.88 27.2433 154.578 28.132C153.276 29 151.726 29.434 149.928 29.434ZM166.473 29.248C164.53 29.248 163.011 28.814 161.916 27.946C160.821 27.0573 160.273 25.5797 160.273 23.513V13.996L160.18 13.81L161.358 9.997H165.884V21.715C165.884 22.521 166.06 23.079 166.411 23.389C166.762 23.699 167.238 23.854 167.837 23.854C168.126 23.854 168.405 23.823 168.674 23.761C168.963 23.699 169.201 23.637 169.387 23.575V28.845C168.953 28.9897 168.498 29.093 168.023 29.155C167.568 29.217 167.052 29.248 166.473 29.248ZM157.886 18.987V13.81H169.387V18.987H157.886Z" fill="white"/>
</svg>
